<svg width="103" height="99" viewBox="0 0 103 99" fill="none" xmlns="http://www.w3.org/2000/svg">
<path d="M5.63958 66.6222L17.5787 58.3139L19.8181 61.5319L15.2709 64.6962L15.3034 64.7428C15.6877 64.6484 16.0845 64.6261 16.494 64.6757C16.9074 64.7226 17.3061 64.8605 17.6903 65.0892C18.0783 65.3153 18.4265 65.6498 18.7348 66.0929C19.1459 66.6836 19.3793 67.3547 19.435 68.1062C19.4935 68.8616 19.3008 69.6417 18.8572 70.4466C18.4162 71.2553 17.6556 72.0355 16.5751 72.7874C15.5413 73.5068 14.5721 73.9419 13.6675 74.0926C12.7656 74.2472 11.961 74.1726 11.2535 73.8689C10.5488 73.569 9.97461 73.1004 9.53107 72.463C9.23898 72.0433 9.04601 71.6209 8.95215 71.1959C8.86489 70.7721 8.85865 70.3611 8.93346 69.9629C9.01485 69.566 9.16384 69.1998 9.38044 68.8645L9.33176 68.7945L7.86269 69.8168L5.63958 66.6222ZM12.3074 66.6546C11.8721 66.9575 11.5344 67.2762 11.2941 67.6107C11.0604 67.9463 10.9292 68.2799 10.9003 68.6115C10.8781 68.9443 10.9697 69.2583 11.1753 69.5537C11.3808 69.8491 11.6388 70.0416 11.9493 70.1313C12.2663 70.2222 12.6201 70.2125 13.0106 70.1022C13.4077 69.9932 13.8278 69.7845 14.2709 69.4762C14.7139 69.1678 15.0537 68.8478 15.29 68.516C15.533 68.1854 15.665 67.8571 15.6861 67.5309C15.7137 67.2059 15.6248 66.8957 15.4193 66.6004C15.2137 66.305 14.9511 66.1099 14.6313 66.0152C14.3182 65.9216 13.9617 65.9274 13.5618 66.0326C13.1686 66.1389 12.7505 66.3463 12.3074 66.6546Z" fill="#717171"/>
<path d="M17.1491 85.8522C16.7826 85.5915 16.454 85.3142 16.1633 85.0203C15.8699 84.7302 15.6321 84.4478 15.4499 84.173L17.7581 82.3982C17.9546 82.6774 18.1513 82.9074 18.3482 83.0881C18.5489 83.2715 18.747 83.3892 18.9425 83.4411C19.1418 83.4957 19.3339 83.4667 19.5186 83.354L19.7033 83.2414L23.1809 71.7351L26.5145 74.1062L23.5699 81.2852L23.6625 81.351L29.501 76.2303L32.8578 78.6179L22.7668 85.9433C22.2563 86.318 21.708 86.5905 21.1222 86.7607C20.5375 86.9374 19.9153 86.9626 19.2556 86.8362C18.596 86.7099 17.8938 86.3818 17.1491 85.8522Z" fill="#717171"/>
<path d="M43.1289 81.5687L43.2901 78.391L55.9159 79.0313L55.7547 82.2091L51.3853 81.9875L50.8097 93.3365L46.9227 93.1394L47.4983 81.7903L43.1289 81.5687Z" fill="#717171"/>
<path d="M65.2024 95.6053C64.7719 95.7356 64.3515 95.8257 63.9412 95.8757C63.5322 95.9303 63.1633 95.9455 62.8345 95.9213L62.8436 93.0097C63.1847 93.0252 63.487 93.0104 63.7503 92.9653C64.0183 92.9188 64.2326 92.8342 64.3933 92.7113C64.5585 92.5871 64.6531 92.4175 64.677 92.2025L64.701 91.9874L57.7299 82.195L61.6454 81.0099L65.5205 87.7323L65.6292 87.6994L65.153 79.9482L69.0957 78.7548L68.7127 91.2184C68.6966 91.8515 68.5765 92.4518 68.3525 93.0193C68.1344 93.5899 67.7736 94.0974 67.2699 94.5417C66.7662 94.986 66.0771 95.3405 65.2024 95.6053Z" fill="#717171"/>
<path d="M79.7645 89.694L70.947 77.5593L74.0956 75.2714L75.2145 76.8112L75.2834 76.7611C75.1812 76.3789 75.1508 75.9825 75.192 75.5721C75.2305 75.1579 75.3602 74.7564 75.581 74.3676C75.7991 73.9751 76.1265 73.6201 76.5631 73.3028C77.1454 72.8798 77.8116 72.6327 78.5618 72.5617C79.3158 72.4878 80.0997 72.6645 80.9134 73.0916C81.731 73.5159 82.5266 74.2605 83.3004 75.3254C84.0407 76.3443 84.4955 77.3044 84.6646 78.2057C84.8376 79.1043 84.7795 79.9103 84.4903 80.6238C84.2049 81.3346 83.7481 81.9181 83.1199 82.3746C82.7062 82.6752 82.2879 82.8768 81.8649 82.9793C81.4429 83.0752 81.0321 83.0898 80.6325 83.0231C80.234 82.9499 79.8649 82.8084 79.5252 82.5987L79.4792 82.6321L82.9361 87.3894L79.7645 89.694ZM77.256 79.7174C77.5677 80.1465 77.8932 80.4776 78.2326 80.711C78.5729 80.9378 78.9091 81.0622 79.2412 81.0843C79.5744 81.0997 79.8865 81.0017 80.1776 80.7902C80.4687 80.5786 80.6559 80.3168 80.7393 80.0045C80.8236 79.6857 80.8067 79.3322 80.6885 78.944C80.5714 78.5492 80.3542 78.1334 80.0369 77.6968C79.7196 77.2601 79.3927 76.927 79.0561 76.6974C78.7206 76.4613 78.3896 76.336 78.0631 76.3216C77.7376 76.3006 77.4293 76.3958 77.1382 76.6074C76.8471 76.8189 76.6575 77.0855 76.5693 77.4071C76.4821 77.7221 76.4952 78.0784 76.6085 78.476C76.7229 78.867 76.9387 79.2808 77.256 79.7174Z" fill="#717171"/>
<path d="M94.0008 70.6865C93.3452 71.6493 92.5963 72.3537 91.7541 72.7998C90.9106 73.2394 90.0145 73.4112 89.066 73.3152C88.1162 73.2126 87.156 72.8308 86.1854 72.1699C85.254 71.5357 84.5678 70.7935 84.1271 69.9434C83.6863 69.0933 83.5053 68.1939 83.5842 67.2452C83.6632 66.2965 84.0198 65.3564 84.654 64.425C85.1177 63.744 85.6431 63.1995 86.2302 62.7916C86.8173 62.3837 87.4457 62.1213 88.1153 62.0044C88.781 61.8849 89.4715 61.914 90.1868 62.0918C90.9021 62.2695 91.6178 62.6022 92.334 63.0899L93.0855 63.6016L87.6009 71.6559L85.8163 70.4407L89.2701 65.3686C89.0091 65.1966 88.7368 65.1086 88.4532 65.1045C88.1683 65.0938 87.8978 65.1588 87.6417 65.2994C87.3843 65.4334 87.1636 65.6355 86.9797 65.9055C86.8012 66.1677 86.694 66.4471 86.6583 66.7435C86.6186 67.0373 86.6513 67.3174 86.7564 67.5837C86.8642 67.8461 87.0465 68.0705 87.3034 68.2568L89.2289 69.568C89.5185 69.7652 89.8181 69.8805 90.1277 69.9137C90.4373 69.9469 90.734 69.894 91.0177 69.755C91.3014 69.616 91.5525 69.386 91.7711 69.065C91.923 68.842 92.0302 68.6171 92.0929 68.3906C92.1582 68.1601 92.1774 67.9383 92.1506 67.7253C92.1199 67.5096 92.0417 67.3132 91.9161 67.136L93.9308 64.1772C94.4877 64.7054 94.8678 65.3165 95.0711 66.0106C95.2705 66.702 95.2842 67.4475 95.1122 68.2469C94.9389 69.0397 94.5685 69.8529 94.0008 70.6865Z" fill="#717171"/>
<path d="M16.3927 41.1677L4.23745 33.179L9.85451 24.6323L12.5135 26.3799L9.06523 31.6266L11.1544 32.9996L14.2594 28.2752L16.9184 30.0228L13.8134 34.7472L18.5615 37.8678L16.3927 41.1677Z" fill="#717171"/>
<path d="M29.5801 25.8721L23.7991 16.6207L27.1238 14.5432L32.9048 23.7946L29.5801 25.8721ZM24.8593 14.6183C24.4096 14.8993 23.9312 14.9916 23.4243 14.8952C22.9174 14.7988 22.5335 14.5418 22.2726 14.1242C22.0116 13.7066 21.9489 13.2489 22.0845 12.751C22.22 12.2531 22.5127 11.8637 22.9624 11.5827C23.4161 11.2991 23.8944 11.2068 24.3973 11.3057C24.9042 11.4022 25.2882 11.6592 25.5491 12.0768C25.81 12.4944 25.8727 12.9521 25.7372 13.45C25.6056 13.9453 25.313 14.3347 24.8593 14.6183Z" fill="#717171"/>
<path d="M40.6943 5.60881L44.1428 19.7396L40.3341 20.669L36.8857 6.53828L40.6943 5.60881Z" fill="#717171"/>
<path d="M60.0686 8.97992L59.7069 11.7977L52.5779 10.8826L52.9396 8.06486L60.0686 8.97992ZM54.6531 5.64971L58.5416 6.14884L57.2667 16.0816C57.2474 16.2318 57.257 16.362 57.2953 16.4719C57.3344 16.5772 57.4045 16.6625 57.5059 16.7281C57.6079 16.7889 57.7434 16.8302 57.9125 16.8519C58.0299 16.8669 58.1679 16.8703 58.3265 16.862C58.4898 16.8544 58.6102 16.8459 58.6878 16.8368L58.9005 19.6424C58.7201 19.6718 58.4631 19.7032 58.1294 19.7368C57.8004 19.7709 57.4137 19.7714 56.9692 19.7382C56.0709 19.6706 55.3335 19.4829 54.7573 19.175C54.1816 18.8624 53.7734 18.4353 53.5326 17.8936C53.2918 17.3519 53.2247 16.7036 53.3311 15.9487L54.6531 5.64971Z" fill="#717171"/>
<path d="M71.7243 25.5236C70.7672 24.8598 70.0692 24.1049 69.6303 23.2589C69.198 22.4116 69.0339 21.5142 69.138 20.5665C69.2487 19.6176 69.6386 18.6607 70.3078 17.6958C70.9501 16.7698 71.6981 16.0901 72.5519 15.6566C73.4057 15.2231 74.3066 15.0499 75.2546 15.1369C76.2027 15.2239 77.1397 15.5886 78.0656 16.2308C78.7426 16.7003 79.2825 17.2303 79.6854 17.8209C80.0883 18.4115 80.3453 19.042 80.4564 19.7126C80.5703 20.3793 80.5353 21.0695 80.3514 21.7833C80.1675 22.497 79.8287 23.2099 79.3349 23.9219L78.8168 24.6689L70.8097 19.1157L72.0402 17.3415L77.0825 20.8386C77.2567 20.5791 77.3471 20.3076 77.3536 20.024C77.3668 19.7392 77.3041 19.4682 77.1657 19.2108C77.0338 18.9523 76.8337 18.7299 76.5652 18.5437C76.3045 18.3629 76.0261 18.2534 75.73 18.2151C75.4366 18.1729 75.1562 18.2033 74.889 18.306C74.6257 18.4115 74.3998 18.5919 74.2112 18.8472L72.8836 20.7614C72.6839 21.0493 72.5661 21.3479 72.5302 21.6573C72.4943 21.9666 72.5447 22.2637 72.6813 22.5486C72.8179 22.8335 73.0458 23.0866 73.3648 23.3078C73.5866 23.4616 73.8105 23.5708 74.0365 23.6354C74.2664 23.7027 74.488 23.7238 74.7013 23.6988C74.9172 23.67 75.1143 23.5935 75.2926 23.4693L78.2339 25.5093C77.701 26.0617 77.0867 26.4365 76.3909 26.6339C75.6978 26.8274 74.9523 26.8347 74.1544 26.6558C73.363 26.4758 72.553 26.0984 71.7243 25.5236Z" fill="#717171"/>
<path d="M82.5393 35.8942L92.1043 30.6484L93.9348 33.9861L92.1165 34.9834L92.1711 35.083C92.9393 34.8885 93.5827 34.8948 94.1012 35.1018C94.622 35.313 95.0225 35.6739 95.3025 36.1845C95.3845 36.334 95.4529 36.4882 95.5077 36.6472C95.5689 36.808 95.6163 36.9683 95.6499 37.1281L92.7169 38.7367C92.6817 38.5346 92.6103 38.301 92.5027 38.036C92.3952 37.771 92.2924 37.5492 92.1945 37.3707C92.0101 37.0344 91.7671 36.7735 91.4655 36.5879C91.1703 36.4042 90.8436 36.3106 90.4854 36.3073C90.1313 36.3017 89.7716 36.3991 89.4063 36.5994L84.4245 39.3316L82.5393 35.8942Z" fill="#717171"/>
</svg>
