<svg xmlns="http://www.w3.org/2000/svg" xmlns:xlink="http://www.w3.org/1999/xlink" version="1.1" x="0px" y="0px" viewBox="0 0 100 125" enable-background="new 0 0 100 100" xml:space="preserve"><g><path fill="#000000" d="M36.489,48.283c1.397-6.445,7.305-11.387,14.181-11.387s12.676,4.941,14.179,11.387h23.638   C86.838,28.41,70.157,12.725,49.867,12.725c-20.291,0-36.972,15.686-38.619,35.559H36.489z"/></g><g><path fill="#000000" d="M64.849,54.729c-1.395,6.446-7.41,11.387-14.286,11.387s-12.676-4.94-14.182-11.387H11.248   c1.647,19.875,18.328,35.559,38.619,35.559c20.29,0,36.971-15.684,38.619-35.559H64.849z"/></g><g><path fill="#000000" d="M42.507,51.506c0,4.512,3.651,8.164,8.163,8.164c4.513,0,8.164-3.652,8.164-8.164s-3.651-8.164-8.164-8.164   C46.158,43.342,42.507,46.994,42.507,51.506z"/></g><text x="0" y="115" fill="#000000" font-size="5px" font-weight="bold" font-family="'Helvetica Neue', Helvetica, Arial-Unicode, Arial, Sans-serif">Created by Iconic</text><text x="0" y="120" fill="#000000" font-size="5px" font-weight="bold" font-family="'Helvetica Neue', Helvetica, Arial-Unicode, Arial, Sans-serif">from the Noun Project</text></svg>