<?xml version="1.0" encoding="utf-8"?>
<!-- Generator: Adobe Illustrator 28.0.0, SVG Export Plug-In . SVG Version: 6.00 Build 0)  -->
<svg version="1.1" id="Layer_2_00000119107276206189349390000002494074645203553954_"
	 xmlns="http://www.w3.org/2000/svg" xmlns:xlink="http://www.w3.org/1999/xlink" x="0px" y="0px" viewBox="0 0 16.8 16.8"
	 style="enable-background:new 0 0 16.8 16.8;" xml:space="preserve">
<style type="text/css">
	.st0{fill:#E4E8E9;}
	.st1{fill:#CFD8DC;}
	.st2{fill:#EF4423;}
	.st3{fill:#37474F;}
</style>
<g>
	<g>
		<g>
			<path class="st0" d="M0,8.9c0.2,4.4,3.9,7.9,8.4,7.9c4.5,0,8.2-3.6,8.4-7.9H0z"/>
			<path class="st1" d="M8.4,16.8c4.6,0,8.4-3.8,8.4-8.4c0,0-0.1,6.7-8.4,6.7S0,8.4,0,8.4C0,13,3.8,16.8,8.4,16.8z"/>
		</g>
		<path class="st2" d="M8.4,0C4,0,0.3,3.6,0,7.9h16.8C16.5,3.6,12.8,0,8.4,0z"/>
		<path class="st3" d="M16.8,7.9H0c0,0.2,0,0.3,0,0.5c0,0.2,0,0.3,0,0.5h0C0,8.7,0,8.6,0,8.5c0,0.1,0,0.2,0.1,0.4h16.7
			c0-0.1,0-0.2,0-0.3V8.5V8.4C16.8,8.2,16.8,8.1,16.8,7.9z"/>
		<g>
			<circle class="st3" cx="8.3" cy="8.5" r="2.5"/>
			<circle class="st0" cx="8.3" cy="8.5" r="1.7"/>
			<circle class="st3" cx="8.3" cy="8.5" r="0.8"/>
		</g>
	</g>
</g>
</svg>
